<?xml version="1.0" encoding="UTF-8"?><svg id="Layer_2" xmlns="http://www.w3.org/2000/svg" viewBox="0 0 65.306 65.306"><g id="Layer_1-2"><path d="m32.653,64.306C15.2,64.306,1,50.107,1,32.653S15.2,1,32.653,1s31.653,14.2,31.653,31.653-14.199,31.653-31.653,31.653Z" stroke-width="0"/><path d="m32.653,2c16.902,0,30.653,13.751,30.653,30.653s-13.751,30.653-30.653,30.653S2,49.555,2,32.653,15.751,2,32.653,2m0-2C14.619,0,0,14.619,0,32.653s14.619,32.653,32.653,32.653,32.653-14.619,32.653-32.653S50.687,0,32.653,0h0Z" stroke-width="0"/><polygon points="16.705 35.473 21.007 30.794 26.897 36.843 44.389 19.703 48.601 23.866 27.028 45.603 16.705 35.473" fill="#fff" fill-rule="evenodd" stroke-width="0"/></g></svg>